<?xml version="1.0"?>
<svg xmlns="http://www.w3.org/2000/svg" height="512px" viewBox="0 -140 512 512" width="512px"><g><path d="m64 72h288v16h-288zm0 0" data-original="#000000" class="active-path" data-old_color="#000000" fill="#FFFFFF"/><path d="m480 88v-24c0-13.253906-10.746094-24-24-24h-144.902344c-7.769531-23.855469-30.007812-40-55.097656-40s-47.328125 16.144531-55.097656 40h-144.902344c-13.253906 0-24 10.746094-24 24v24h-32v96h32.496094c3.539062 27.417969 26.859375 47.957031 54.503906 48h126.542969l17.519531-46.726562c3.898438-10.394532 13.835938-17.28125 24.9375-17.28125s21.039062 6.886718 24.9375 17.28125l17.519531 46.726562h126.542969c27.644531-.042969 50.964844-20.582031 54.503906-48h32.496094v-96zm-448 80h-16v-64h16zm224-152c16.164062.074219 30.851562 9.402344 37.792969 24h-75.585938c6.941407-14.597656 21.628907-23.925781 37.792969-24zm208 161c-.027344 21.53125-17.472656 38.976562-39 39h-115.457031l-13.597657-36.335938c-6.246093-16.632812-22.152343-27.652343-39.921874-27.652343-17.769532 0-33.675782 11.019531-39.917969 27.652343l-13.648438 36.335938h-115.457031c-21.527344-.023438-38.972656-17.46875-39-39v-113c0-4.417969 3.582031-8 8-8h400c4.417969 0 8 3.582031 8 8zm32-9h-16v-64h16zm0 0" data-original="#000000" class="active-path" data-old_color="#000000" fill="#FFFFFF"/><path d="m416 72c-17.671875 0-32 14.328125-32 32 0 17.675781 14.328125 32 32 32s32-14.324219 32-32c0-17.671875-14.328125-32-32-32zm0 48c-8.835938 0-16-7.160156-16-16 0-8.835938 7.164062-16 16-16s16 7.164062 16 16c0 8.839844-7.164062 16-16 16zm0 0" data-original="#000000" class="active-path" data-old_color="#000000" fill="#FFFFFF"/></g> </svg>
